<svg width="18" height="18" viewBox="0 0 18 18" fill="none" xmlns="http://www.w3.org/2000/svg">
<path d="M16.8 0H0.7C0.312812 0 0 0.310988 0 0.695918V16.702C0 17.087 0.312812 17.3979 0.7 17.3979H16.8C17.1872 17.3979 17.5 17.087 17.5 16.702V0.695918C17.5 0.310988 17.1872 0 16.8 0ZM14.7787 5.07803H13.3809C12.285 5.07803 12.0728 5.59561 12.0728 6.35678V8.0335H14.6891L14.3478 10.6584H12.0728V17.3979H9.345V10.6606H7.06344V8.0335H9.345V6.09798C9.345 3.85147 10.7253 2.62709 12.7422 2.62709C13.7091 2.62709 14.5381 2.69886 14.7809 2.73148V5.07803H14.7787Z" fill="#D1F7FF"/>
</svg>
