<svg width="18" height="18" viewBox="0 0 18 18" fill="none" xmlns="http://www.w3.org/2000/svg">
<path d="M15.8594 0H1.64062C0 0 0 0 0 1.63106V15.7669C0 17.3979 0 17.3979 1.64062 17.3979H15.8594C17.5 17.3979 17.5 17.3979 17.5 16.702V1.63106C17.5 0 17.5 0 15.8594 0ZM12.0312 2.71843C12.0312 2.4194 12.2773 2.17474 12.5781 2.17474H14.7656C15.0664 2.17474 15.3125 2.4194 15.3125 2.71843V4.89317C15.3125 5.1922 15.0664 5.43686 14.7656 5.43686H12.5781C12.4332 5.43657 12.2942 5.3792 12.1917 5.2773C12.0892 5.1754 12.0315 5.03728 12.0312 4.89317V2.71843ZM8.75 5.43686C9.60557 5.45882 10.4187 5.81215 11.016 6.42152C11.6133 7.03089 11.9476 7.84811 11.9476 8.69897C11.9476 9.54984 11.6133 10.3671 11.016 10.9764C10.4187 11.5858 9.60557 11.9391 8.75 11.9611C7.89443 11.9391 7.08132 11.5858 6.484 10.9764C5.88667 10.3671 5.55238 9.54984 5.55238 8.69897C5.55238 7.84811 5.88667 7.03089 6.484 6.42152C7.08132 5.81215 7.89443 5.45882 8.75 5.43686ZM15.3125 14.6795C15.3125 14.9785 15.0664 15.2232 14.7656 15.2232H2.73438C2.58942 15.2229 2.45049 15.1655 2.348 15.0636C2.2455 14.9617 2.18779 14.8236 2.1875 14.6795V7.6116H3.39062C3.22821 8.40164 3.24463 9.21771 3.4387 10.0007C3.63277 10.7836 3.99962 11.5138 4.51267 12.1384C5.02572 12.7629 5.67211 13.2662 6.40499 13.6117C7.13788 13.9571 7.9389 14.1362 8.75 14.1358C9.5611 14.1362 10.3621 13.9571 11.095 13.6117C11.8279 13.2662 12.4743 12.7629 12.9873 12.1384C13.5004 11.5138 13.8672 10.7836 14.0613 10.0007C14.2554 9.21771 14.2718 8.40164 14.1094 7.6116H15.3125V14.6795Z" fill="#D1F7FF"/>
</svg>
