<svg width="18" height="18" viewBox="0 0 18 18" fill="none" xmlns="http://www.w3.org/2000/svg">
<path d="M16.8 0H0.7C0.312812 0 0 0.310988 0 0.695918V16.702C0 17.087 0.312812 17.3979 0.7 17.3979H16.8C17.1872 17.3979 17.5 17.087 17.5 16.702V0.695918C17.5 0.310988 17.1872 0 16.8 0ZM5.19094 14.8252H2.59438V6.52206H5.19094V14.8252ZM3.89375 5.38684C3.59609 5.38684 3.30511 5.29909 3.05762 5.13468C2.81012 4.97027 2.61722 4.7366 2.50331 4.4632C2.3894 4.1898 2.3596 3.88896 2.41767 3.59872C2.47574 3.30848 2.61908 3.04188 2.82955 2.83263C3.04003 2.62338 3.3082 2.48087 3.60014 2.42314C3.89208 2.36541 4.19469 2.39504 4.46969 2.50829C4.74469 2.62153 4.97974 2.81331 5.14511 3.05936C5.31048 3.30541 5.39875 3.59469 5.39875 3.89062C5.39656 4.71702 4.72281 5.38684 3.89375 5.38684ZM14.9122 14.8252H12.3178V10.7867C12.3178 9.82332 12.3003 8.58589 10.9681 8.58589C9.61844 8.58589 9.41063 9.63411 9.41063 10.7171V14.8252H6.81844V6.52206H9.30781V7.65727H9.34281C9.68844 7.00485 10.535 6.31546 11.7994 6.31546C14.4288 6.31546 14.9122 8.03568 14.9122 10.2713V14.8252Z" fill="#D1F7FF"/>
</svg>
